<svg width="512" height="512" xmlns="http://www.w3.org/2000/svg">

 <g>
  <title>background</title>
  <rect fill="none" id="canvas_background" height="402" width="582" y="-1" x="-1"/>
 </g>
 <g>
  <title>Layer 1</title>
  <path fill="#ffffff" id="svg_2" d="m276,222.4c-25.8,-10.8 -55.2,-17 -86.5,-17c-100.5,0 -182.2,63.5 -183.5,142.2l282.8,0l-12.8,-125.2zm-230.6,85.1l-1.5,-1.6l5.6,-4.9l1.5,1.6l-5.6,4.9zm74.6,-38.6l-1.5,-1.6l5.6,-4.9l1.5,1.6l-5.6,4.9zm24.7,61l-1.5,-1.6l5.6,-4.9l1.5,1.6l-5.6,4.9zm7,-37.8l-1.5,-1.6l5.6,-4.9l1.5,1.6l-5.6,4.9zm18.5,-51.2l-1.5,-1.6l5.6,-4.9l1.5,1.6l-5.6,4.9zm47.2,37.3l5.6,-4.9l1.5,1.6l-5.6,4.9l-1.5,-1.6zm5,48.4l-1.5,-1.6l5.6,-4.9l1.5,1.6l-5.6,4.9zm19.9,-77.5l-1.5,-1.6l5.6,-4.9l1.5,1.6l-5.6,4.9zm28.4,32.4l5.6,-4.9l1.5,1.6l-5.6,4.9l-1.5,-1.6z"/>
  <path fill="#ffffff" id="svg_3" d="m296.9,427.2c-2.5,1.5 -5.3,2.8 -8.4,4c-12.1,4.6 -27.1,6.1 -39.8,2.5c-27.5,-7.8 -35.9,-35.7 -69.6,-35.1c-12.1,0.2 -23.4,4.3 -33.2,9.1c-11.9,5.9 -22.8,12.6 -35.2,18.1c-16.4,7.2 -37.9,11.8 -55.5,5.9c-17.3,-5.8 -25.1,-22.8 -30.4,-35.4l-18.8,0l0,23.4c0,30.6 15.4,55.5 34.3,55.5l264.7,0c-2.4,-3.5 -4,-7.6 -4.4,-12.1l-3.7,-35.9z"/>
  <path fill="#ffffff" id="svg_4" d="m13.4,360.5c0,2.4 1.9,4.3 4.3,4.3l272.9,0l-0.9,-8.6l-272,0c-2.4,0 -4.3,1.9 -4.3,4.3z"/>
  <path fill="#ffffff" id="svg_5" d="m13.7,387.7l279.2,0l-1.6,-15.4l-277.6,0c-4.2,0 -7.7,3.4 -7.7,7.7c0,4.3 3.4,7.7 7.7,7.7z"/>
  <path fill="#ffffff" id="svg_6" d="m457,44.3l49,0l0,-7.4l-49,0c-12,0 -22.4,7.7 -25.9,19.2l-17.5,57.4l-121.2,0c-8.7,0 -15.5,7.5 -14.6,16.2l34,332.3c0.8,7.5 7.1,13.2 14.6,13.2l45.7,0l1.1,0l45.7,0c7.5,0 13.9,-5.7 14.6,-13.2l34,-332.3c0.9,-8.7 -5.9,-16.2 -14.6,-16.2l-31.4,0l16.9,-55.2c2.3,-8.4 9.9,-14 18.6,-14z"/>
 </g>
</svg>