<svg width="32" height="32" xmlns="http://www.w3.org/2000/svg">

 <g>
  <title>background</title>
  <rect fill="none" id="canvas_background" height="402" width="582" y="-1" x="-1"/>
 </g>
 <g>
  <title>Layer 1</title>
  <path fill="#ffffff" id="svg_1" d="m25,18c-3.9,0 -7,3.1 -7,7s3.1,7 7,7s7,-3.1 7,-7s-3.1,-7 -7,-7zm3.8,6.8l-3.5,1.2c-0.1,0 -0.2,0 -0.3,0c-0.2,0 -0.4,-0.1 -0.6,-0.2c-0.2,-0.2 -0.4,-0.5 -0.4,-0.8l0,-4c0,-0.6 0.4,-1 1,-1s1,0.4 1,1l0,2.6l2.2,-0.7c0.5,-0.2 1.1,0.1 1.3,0.6c0.1,0.5 -0.2,1.1 -0.7,1.3z"/>
  <path fill="#ffffff" id="svg_2" d="m16,25c0,-5 4,-9 9,-9c1.1,0 2.1,0.2 3,0.5l0,-6.9l2,1l0,4.4c0,0.6 0.4,1 1,1s1,-0.4 1,-1l0,-5c0,-0.4 -0.2,-0.7 -0.6,-0.9l-3.4,-1.7l0,-1.4c0,-2.8 -2.2,-5 -5,-5l-14,0c-2.8,0 -5,2.2 -5,5l0,1.4l-3.4,1.7c-0.4,0.2 -0.6,0.5 -0.6,0.9l0,5c0,0.6 0.4,1 1,1s1,-0.4 1,-1l0,-4.4l2,-1l0,13.4c0,0.9 0.4,1.7 1,2.2l0,1.8c0,1.7 1.3,3 3,3l2,0c1.7,0 3,-1.3 3,-3l0,-1l3.1,0c-0.1,-0.3 -0.1,-0.7 -0.1,-1zm-3,-3.8c-0.1,0.5 -0.5,0.8 -1,0.8c-0.1,0 -0.2,0 -0.2,0l-4,-1c-0.5,-0.1 -0.9,-0.7 -0.7,-1.2c0.1,-0.5 0.7,-0.9 1.2,-0.7l4,1c0.5,0.1 0.8,0.6 0.7,1.1zm-7,-6.9l0,-8.3c0,-1.7 1.3,-3 3,-3l14,0c1.7,0 3,1.3 3,3l0,8.3c-6.5,2.2 -13.5,2.2 -20,0z"/>
 </g>
</svg>