<svg width="512" height="512" xmlns="http://www.w3.org/2000/svg">

 <g>
  <title>background</title>
  <rect fill="none" id="canvas_background" height="402" width="582" y="-1" x="-1"/>
 </g>
 <g>
  <title>Layer 1</title>
  <path fill="#ffffff" id="svg_2" d="m112.77,43.5l0,425l143.23,-90.56l143.23,90.56l0,-425l-286.46,0zm226.16,140.22l-96.13,96.13c-3.12,3.12 -7.22,4.69 -11.31,4.69s-8.19,-1.56 -11.31,-4.69l-47.11,-47.11c-6.25,-6.25 -6.25,-16.38 0,-22.63c6.25,-6.25 16.38,-6.25 22.63,0l35.79,35.79l84.81,-84.81c6.25,-6.25 16.38,-6.25 22.63,0c6.25,6.25 6.25,16.38 0,22.63z" class="st0"/>
 </g>
</svg>