<svg xmlns="http://www.w3.org/2000/svg" viewBox="0 0 62 57" id="journeyplanner">
 <path fill="#fff" fill-rule="nonzero" d="M15.144 15.29C6.778 15.29 0 22.36 0 31.08 0 43.361 15.144 57 15.144 57s15.147-13.639 15.147-25.92c0-8.719-6.779-15.79-15.147-15.79zm0 25.73c-5.689 0-10.303-4.676-10.303-10.448 0-5.771 4.614-10.45 10.303-10.45 5.691 0 10.305 4.677 10.305 10.45-.001 5.772-4.615 10.448-10.305 10.448zM50.17 28.672s10.412-9.374 10.412-17.817C60.582 4.86 55.921 0 50.17 0c-5.754 0-10.413 4.86-10.413 10.855 0 8.445 10.413 17.817 10.413 17.817zm-7.085-18.167c0-3.966 3.173-7.182 7.085-7.182 3.91 0 7.084 3.215 7.084 7.182 0 3.968-3.174 7.185-7.084 7.185-3.912 0-7.085-3.22-7.085-7.185zm7.085-2.86c1.566 0 2.84 1.282 2.84 2.866 0 1.585-1.273 2.868-2.84 2.868-1.568 0-2.84-1.283-2.84-2.868 0-1.584 1.272-2.867 2.84-2.867zm2.106 46.347h-1.954v2.867l2.074-.006c.667-.053 1.33-.149 1.985-.285l-.583-2.806c-.515.109-1.064.186-1.522.23zm-7.633 0h3.787v2.867h-3.787v-2.867zm-5.679 0h3.786v2.867h-3.786v-2.867zm-5.68 0h3.786v2.867h-3.786v-2.867zm-5.678 0h3.787v2.867h-3.787v-2.867zm-8.674 2.867h6.782v-2.867h-3.787l-2.995 2.867zm36.442-3.57l1.056 2.664c1.494-.6 2.711-1.494 3.617-2.656l-2.23-1.777c-.599.769-1.4 1.348-2.443 1.77zm3.786-6.283c-.024 1.239-.223 2.32-.591 3.213l2.624 1.098c.506-1.226.774-2.656.807-4.255l-2.84-.056zm2.738-2.057c-.197-1.612-.684-3.024-1.443-4.186l-2.372 1.57c.517.796.854 1.794.997 2.972l2.818-.356zm-7.607-5.104c1.138.298 2.084.759 2.808 1.374l1.831-2.19c-1.051-.895-2.375-1.552-3.929-1.957l-.71 2.773zm-1.662-.306l.314-2.846-3.941-.06v2.868l3.153-.006.474.044zm-9.307-2.907h3.786V39.5h-3.786v-2.868zM41.431 39.5v-2.87l-2.529.006a9.236 9.236 0 0 1-.97-.131l-.555 2.811c.403.084.83.14 1.403.188l2.651-.004zm-6.226-.944l1.33-2.53c-.811-.437-1.303-1.076-1.559-2.025l-2.739.752c.458 1.714 1.456 2.993 2.968 3.803zm.281-8.856l-2.301-1.68c-.821 1.146-1.236 2.623-1.236 4.468l2.84-.075c0-1.155.234-2.067.697-2.713zm3.294-1.51h.605v-2.867l-.726.004c-1.422.117-2.643.464-3.625 1.028l1.404 2.493c.626-.355 1.453-.58 2.342-.658zm2.501 0h5.68l-3.003-2.867h-2.677v2.867z"></path>
</svg>