<svg xmlns="http://www.w3.org/2000/svg" viewBox="0 0 62 55" id="livedeparture">
 <path fill="#fff" fill-rule="nonzero" d="M34.147 42.077h7.409v-2.53h-7.41v2.53zm0-5.982h7.409v-2.534h-7.41v2.534zm0 11.964h7.409v-2.53h-7.41v2.53zM8.669 42.077h22.21v-2.53H8.67v2.53zm0 5.982h22.21v-2.53H8.67v2.53zm0-11.964h22.21v-2.534H8.67v2.534zm38.107-4.358v18.496a2.163 2.163 0 0 1-2.15 2.167H4.73a2.162 2.162 0 0 1-2.15-2.167v-21.19h31.3a13 13 0 0 1-3.46-13.926H1.72c-.95 0-1.72.777-1.72 1.734v33.38C0 52.865 2.121 55 4.73 55h39.896c2.61 0 4.73-2.137 4.73-4.768V30.498c-.804.505-1.665.92-2.58 1.24zm-10.171-12.19c0 3.346 2.748 6.056 6.133 6.056 3.39 0 6.136-2.708 6.136-6.057 0-3.345-2.751-6.055-6.136-6.055-3.385 0-6.133 2.71-6.133 6.055zM42.2 6.41l-.081 1.84c-.018.413.279.784.698.802a11.409 11.409 0 0 1 6.749 3.216 11.16 11.16 0 0 1 3.26 6.666.777.777 0 0 0 .813.683l1.868-.077c.459-.024.771-.411.732-.884a14.494 14.494 0 0 0-4.246-8.778 14.764 14.764 0 0 0-8.9-4.191.807.807 0 0 0-.893.723zm.3-5.667l-.082 1.844c-.02.413.3.767.736.805a17.102 17.102 0 0 1 10.5 4.882 16.799 16.799 0 0 1 4.942 10.364c.042.433.397.749.817.726l1.867-.078c.416-.058.754-.428.716-.861-.399-4.585-2.386-9.056-5.936-12.564A20.496 20.496 0 0 0 43.261 0a.764.764 0 0 0-.76.744z"></path>
</svg>