<?xml version="1.0" encoding="utf-8"?>
<!-- Generator: Adobe Illustrator 24.0.1, SVG Export Plug-In . SVG Version: 6.00 Build 0)  -->
<svg version="1.1" id="Layer_1" xmlns="http://www.w3.org/2000/svg" xmlns:xlink="http://www.w3.org/1999/xlink" x="0px" y="0px"
	 viewBox="0 0 24 24" style="enable-background:new 0 0 24 24;" xml:space="preserve">
<style type="text/css">
	.st0{fill:#FFFFFF;}
</style>
<title></title>
<desc></desc>
<path class="st0" d="M23,11c0-2.4-1.5-4.2-4-4.8V3c0-0.3-0.2-0.6-0.4-0.8C18.3,2,18,1.9,17.7,2.1L6.8,6H4.4C2.5,6,1,7.5,1,9.4v3.2
	c0,1.5,1,2.7,2.3,3.2l2.8,5.7C6.3,21.8,6.6,22,7,22c0.1,0,0.3,0,0.4-0.1c0.5-0.2,0.7-0.8,0.4-1.3L5.6,16h1.2l10.8,3.9
	c0.1,0,0.2,0.1,0.3,0.1c0.2,0,0.4-0.1,0.6-0.2c0.3-0.2,0.4-0.5,0.4-0.8v-3.2C21.5,15.2,23,13.4,23,11z M4.4,14C3.6,14,3,13.4,3,12.6
	V9.4C3,8.6,3.6,8,4.4,8H6v6H4.4z M17,17.6l-9.1-3.3C8,14.2,8,14.1,8,14V8c0-0.1,0-0.2-0.1-0.3L17,4.4V7v8V17.6z M19,13.7V8.3
	c1.1,0.4,2,1.2,2,2.7C21,12.6,20.1,13.4,19,13.7z"/>
</svg>
