<svg xmlns="http://www.w3.org/2000/svg" viewBox="0 0 49 62" id="timetable">
 <path fill="#fff" fill-rule="nonzero" d="M8.647 7.75H49V62H8.647V7.75zm4.216 4.315v45.619h31.921V12.065h-31.92zm8.274 14.091c-2.122 0-3.843-1.735-3.843-3.875 0-2.14 1.721-3.875 3.843-3.875 2.123 0 3.844 1.735 3.844 3.875 0 2.14-1.721 3.875-3.844 3.875zm0-1.937a1.93 1.93 0 0 0 1.922-1.938 1.93 1.93 0 0 0-1.922-1.938 1.93 1.93 0 0 0-1.922 1.938c0 1.07.86 1.938 1.922 1.938zm8.232-3.875h8.102a1.93 1.93 0 0 1 1.922 1.938 1.93 1.93 0 0 1-1.922 1.938h-8.102a1.93 1.93 0 0 1-1.922-1.938c0-1.07.86-1.938 1.922-1.938zM21.137 38.75c-2.122 0-3.842-1.734-3.843-3.874 0-2.14 1.72-3.875 3.842-3.875 2.123 0 3.843 1.734 3.844 3.874 0 2.14-1.72 3.875-3.843 3.875zm0-1.938a1.93 1.93 0 0 0 1.922-1.938 1.93 1.93 0 0 0-1.922-1.938 1.93 1.93 0 0 0-1.922 1.938c0 1.07.86 1.938 1.922 1.938zm8.232-3.874h8.102a1.93 1.93 0 0 1 1.922 1.938 1.93 1.93 0 0 1-1.922 1.938h-8.102a1.93 1.93 0 0 1-1.922-1.938c0-1.07.86-1.938 1.922-1.938zm-8.232 18.406c-2.122 0-3.842-1.734-3.843-3.874 0-2.14 1.72-3.875 3.842-3.875 2.123 0 3.843 1.734 3.844 3.874 0 2.14-1.72 3.875-3.843 3.875zm0-1.938a1.93 1.93 0 0 0 1.922-1.938 1.93 1.93 0 0 0-1.922-1.938 1.93 1.93 0 0 0-1.922 1.938c0 1.07.86 1.938 1.922 1.938zm8.232-3.875h8.102c.686 0 1.321.37 1.664.969.344.6.344 1.338 0 1.938a1.92 1.92 0 0 1-1.664.969h-8.102a1.93 1.93 0 0 1-1.922-1.938c0-1.07.86-1.938 1.922-1.938zM40.965 4.315H4.28V54.25H0V0h40.965v4.315z"></path>
</svg>