<svg width="32" height="32" xmlns="http://www.w3.org/2000/svg">

 <g>
  <title>background</title>
  <rect fill="none" id="canvas_background" height="402" width="582" y="-1" x="-1"/>
 </g>
 <g>
  <title>Layer 1</title>
  <polyline id="svg_2" stroke-width="2" stroke-miterlimit="10" stroke-linejoin="round" stroke-linecap="round" stroke="#ffffff" points="    2,7 2,6 30,6 30,26 2,26 2,17   " fill="none"/>
  <line id="svg_3" y2="10" y1="6" x2="7" x1="7" stroke-width="2" stroke-miterlimit="10" stroke-linejoin="round" stroke="#ffffff" fill="none"/>
  <line id="svg_4" y2="26" y1="14" x2="7" x1="7" stroke-width="2" stroke-miterlimit="10" stroke-linejoin="round" stroke="#ffffff" fill="none"/>
  <circle id="svg_5" stroke-width="2" stroke-miterlimit="10" stroke-linejoin="round" stroke="#ffffff" r="2" fill="none" cy="12" cx="7"/>
  <polyline id="svg_6" stroke-width="2" stroke-miterlimit="10" stroke-linejoin="round" stroke="#ffffff" points="9,13 12,14     12,10 9,11   " fill="none"/>
  <polyline id="svg_7" stroke-width="2" stroke-miterlimit="10" stroke-linejoin="round" stroke="#ffffff" points="5,13 2,14 2,10     5,11   " fill="none"/>
  <line id="svg_8" y2="12" y1="10" x2="21" x1="21" stroke-width="2" stroke-miterlimit="10" stroke-linejoin="round" stroke-linecap="round" stroke="#ffffff" fill="none"/>
  <line id="svg_9" y2="22" y1="20" x2="21" x1="21" stroke-width="2" stroke-miterlimit="10" stroke-linejoin="round" stroke-linecap="round" stroke="#ffffff" fill="none"/>
  <path id="svg_10" stroke-width="2" stroke-miterlimit="10" stroke-linejoin="round" stroke-linecap="round" stroke="#ffffff" fill="none" d="m19,20l3,0c1.1,0 2,-0.9 2,-2s-0.9,-2 -2,-2l-2,0c-1.1,0 -2,-0.9 -2,-2s0.9,-2 2,-2l3,0"/>
 </g>
</svg>