<svg width="30" height="30" xmlns="http://www.w3.org/2000/svg">

 <g>
  <title>background</title>
  <rect fill="none" id="canvas_background" height="402" width="582" y="-1" x="-1"/>
 </g>
 <g>
  <title>Layer 1</title>
  <path fill="#ffffff" id="svg_1" d="m25,17.238l0,7.481l-6,-1.5l0,-3.168l-2,-2.813l0,6.008l-5,1.429l0,-15.894l0.011,-0.003c0.018,-0.739 0.127,-1.455 0.314,-2.14l-0.788,0.197c-0.34,0.085 -0.697,0.079 -1.035,-0.017l-6.163,-1.762c-0.671,-0.191 -1.339,0.312 -1.339,1.01l0,17.179c0,0.893 0.592,1.678 1.45,1.923l6.194,1.77c0.233,0.066 0.479,0.066 0.712,0l6.147,-1.756c0.337,-0.096 0.694,-0.102 1.035,-0.017l7.158,1.79c0.662,0.166 1.304,-0.336 1.304,-1.019l0,-10.293l-2,1.595zm-15,7.436l-5,-1.428l0,-15.92l5,1.428l0,15.92z"/>
  <path fill="#ffffff" id="svg_3" d="m21,2c-3.866,0 -7,3.134 -7,7c0,4.604 4.551,6.745 5.121,7.258c0.582,0.524 1.063,1.575 1.258,2.241c0.094,0.323 0.359,0.487 0.621,0.494c0.263,-0.007 0.527,-0.171 0.621,-0.494c0.194,-0.665 0.675,-1.717 1.258,-2.241c0.57,-0.513 5.121,-2.654 5.121,-7.258c0,-3.866 -3.134,-7 -7,-7zm0,9c-1.105,0 -2,-0.895 -2,-2s0.895,-2 2,-2s2,0.895 2,2s-0.895,2 -2,2z"/>
 </g>
</svg>